<?xml version="1.0" encoding="utf-8"?>
<!-- Generator: Adobe Illustrator 17.0.0, SVG Export Plug-In . SVG Version: 6.00 Build 0)  -->
<!DOCTYPE svg PUBLIC "-//W3C//DTD SVG 1.1//EN" "http://www.w3.org/Graphics/SVG/1.1/DTD/svg11.dtd">
<svg version="1.1" id="图层_1" xmlns="http://www.w3.org/2000/svg" xmlns:xlink="http://www.w3.org/1999/xlink" x="0px" y="0px"
	 width="400px" height="386px" viewBox="0 0 400 386" enable-background="new 0 0 400 386" xml:space="preserve">
<g>
	<path d="M299.861,187.038c-5.578-1.686-9.44-2.811-6.495-10.194c6.347-15.957,7.013-29.754,0.118-39.578
		c-12.917-18.465-48.244-17.459-88.74-0.503c0-0.008-12.702,5.57-9.451-4.513c6.233-20.033,5.282-36.812-4.409-46.488
		c-21.968-21.987-80.396,0.828-130.498,50.912C22.872,174.211,1.082,213.982,1.082,248.352c0,65.781,84.35,105.759,166.872,105.759
		c108.175,0,180.133-62.837,180.133-112.742C348.087,211.229,322.691,194.111,299.861,187.038z M168.176,330.541
		c-65.84,6.495-122.689-23.259-126.968-66.492c-4.272-43.218,45.655-83.536,111.492-90.046
		c65.863-6.51,122.689,23.244,126.973,66.462C283.926,283.713,234.024,324.031,168.176,330.541z"/>
	<path d="M371.709,66.669c-26.121-28.963-64.657-40.004-100.226-32.444h-0.014c-8.227,1.765-13.464,9.854-11.704,18.069
		c1.746,8.226,9.84,13.486,18.066,11.718c25.315-5.363,52.687,2.493,71.263,23.066c18.547,20.581,23.592,48.633,15.647,73.231v0.008
		c-2.589,8.012,1.79,16.571,9.809,19.16c7.99,2.604,16.593-1.791,19.175-9.765c0-0.03,0-0.059,0-0.074
		C404.896,135.046,397.83,95.601,371.709,66.669z"/>
	<path d="M325.783,161.493c6.894,2.198,14.285-1.561,16.504-8.456c5.452-16.852,2.049-36.056-10.69-50.164
		c-12.724-14.108-31.493-19.464-48.825-15.779c-7.088,1.509-11.6,8.478-10.068,15.564c1.501,7.066,8.478,11.6,15.528,10.068v0.015
		c8.478-1.79,17.666,0.821,23.88,7.694c6.229,6.887,7.901,16.298,5.223,24.539h0.014
		C315.13,151.862,318.903,159.252,325.783,161.493z"/>
	<path d="M174.749,207.279c-31.329-8.167-66.746,7.442-80.351,35.066c-13.864,28.156-0.455,59.404,31.196,69.643
		c32.787,10.564,71.441-5.652,84.883-36.013C223.726,246.236,207.178,215.653,174.749,207.279z M150.836,279.185
		c-6.385,10.15-20.011,14.603-30.283,9.913c-10.131-4.601-13.109-16.408-6.75-26.321c6.288-9.854,19.475-14.264,29.676-9.987
		C153.795,257.199,157.08,268.917,150.836,279.185z M171.809,252.242c-2.293,3.936-7.391,5.83-11.381,4.202
		c-3.921-1.627-5.153-6.022-2.919-9.898c2.293-3.847,7.18-5.711,11.093-4.173C172.575,243.839,174.009,248.277,171.809,252.242z"/>
</g>
</svg>
